<svg width="21" height="26" viewBox="0 0 21 26" fill="none" xmlns="http://www.w3.org/2000/svg">
<path opacity="0.8" d="M10.5 0C12.7855 0 14.6484 1.8097 14.7338 4.07433L14.7368 4.23684H20.0789C20.5876 4.23684 21 4.64921 21 5.15789C21 5.63479 20.6376 6.02702 20.1731 6.07419L20.0789 6.07895H19.2751L18.0201 22.7094C17.8968 24.3428 16.5355 25.6053 14.8974 25.6053H6.10261C4.46451 25.6053 3.10319 24.3428 2.97991 22.7094L1.72421 6.07895H0.921053C0.444162 6.07895 0.0519223 5.71651 0.00475522 5.25207L0 5.15789C0 4.681 0.362434 4.28876 0.826881 4.2416L0.921053 4.23684H6.26316C6.26316 1.8969 8.16006 0 10.5 0ZM17.4279 6.07895H3.57213L4.81679 22.5707C4.86756 23.2433 5.4281 23.7632 6.10261 23.7632H14.8974C15.5719 23.7632 16.1324 23.2433 16.1832 22.5707L17.4279 6.07895ZM12.8947 9.94737C13.3716 9.94737 13.7639 10.3098 13.811 10.7742L13.8158 10.8684V18.9737C13.8158 19.4824 13.4034 19.8947 12.8947 19.8947C12.4178 19.8947 12.0256 19.5323 11.9784 19.0679L11.9737 18.9737V10.8684C11.9737 10.3597 12.3861 9.94737 12.8947 9.94737ZM8.10526 9.94737C8.58215 9.94737 8.97439 10.3098 9.02156 10.7742L9.02632 10.8684V18.9737C9.02632 19.4824 8.61395 19.8947 8.10526 19.8947C7.62837 19.8947 7.23613 19.5323 7.18897 19.0679L7.18421 18.9737V10.8684C7.18421 10.3597 7.59658 9.94737 8.10526 9.94737ZM10.5 1.84211C9.22303 1.84211 8.1795 2.8416 8.10905 4.10095L8.10526 4.23684H12.8947C12.8947 2.91427 11.8226 1.84211 10.5 1.84211Z" fill="white"/>
</svg>
