<svg width="25" height="25" viewBox="0 0 25 25" fill="none" xmlns="http://www.w3.org/2000/svg">
<path opacity="0.8" d="M24.6331 4.86604L20.133 0.365987C19.8986 0.131646 19.5807 0 19.2493 0C18.9178 0 18.5999 0.131646 18.3655 0.365987L2.61533 16.1162C2.47791 16.2531 2.3747 16.4206 2.31408 16.6049L0.064052 23.355C0.00149613 23.5428 -0.0155576 23.7428 0.0142947 23.9385C0.0441471 24.1342 0.120052 24.32 0.23576 24.4806C0.351469 24.6412 0.503672 24.7721 0.67984 24.8624C0.856008 24.9527 1.0511 24.9998 1.24906 25C1.38328 24.9998 1.51661 24.9783 1.64407 24.9362L8.39414 22.6862C8.57807 22.6249 8.74505 22.5213 8.88165 22.3837L24.6318 6.63355C24.8663 6.39931 24.9982 6.08151 24.9984 5.75005C24.9987 5.41859 24.8672 5.10061 24.6331 4.86604ZM7.32413 20.4075L3.22534 21.7737L4.5916 17.6749L19.2493 3.01727L21.9818 5.74979L7.32413 20.4075Z" fill="white"/>
</svg>
